<!DOCTYPE svg PUBLIC "-//W3C//DTD SVG 20010904//EN"
 "http://www.w3.org/TR/2001/REC-SVG-20010904/DTD/svg10.dtd">
<svg version="1.0" xmlns="http://www.w3.org/2000/svg"
 width="369.000000pt" height="361.000000pt" viewBox="0 0 369.000000 361.000000"
 preserveAspectRatio="xMidYMid meet">

<g transform="translate(0.000000,361.000000) scale(0.100000,-0.100000)"
fill="#000000" stroke="none">
<path d="M703 3566 c-21 -23 -100 -109 -176 -189 l-138 -146 60 -129 c77 -167
116 -279 132 -377 19 -125 14 -424 -11 -595 -12 -79 -23 -146 -25 -148 -2 -2
-38 19 -80 47 -45 30 -88 51 -103 51 -46 0 -99 -19 -125 -45 -28 -29 -199
-404 -218 -478 -9 -37 -9 -54 1 -77 13 -32 76 -90 96 -90 15 0 30 -38 53 -141
49 -212 134 -345 305 -473 142 -107 293 -180 571 -278 426 -151 534 -207 687
-356 l87 -84 103 92 c202 181 325 247 713 377 494 165 723 346 841 663 18 47
35 104 39 128 6 37 14 48 61 83 100 74 105 102 46 239 -177 410 -178 412 -241
430 -63 17 -137 -3 -209 -58 -18 -14 -34 -23 -37 -21 -8 8 -53 233 -71 354
-21 140 -23 362 -5 450 20 97 61 212 118 334 l54 115 -28 27 c-15 16 -109 98
-208 183 l-180 156 -1037 0 -1036 0 -39 -44z m205 -168 c11 -21 28 -37 49 -43
46 -15 51 -24 23 -45 -19 -15 -24 -26 -22 -59 3 -45 0 -46 -47 -30 -25 9 -36
8 -54 -3 -33 -22 -47 -12 -47 35 0 26 -8 52 -20 67 l-19 25 37 10 c27 8 42 20
57 47 22 41 21 42 43 -4z m1896 -48 l27 0 -26 -37 c-14 -21 -25 -51 -25 -68
l0 -30 -73 -1 -73 -1 0 33 c0 19 -10 47 -23 65 -26 35 -27 33 19 45 21 6 43
22 55 40 l20 30 36 -38 c24 -26 45 -38 63 -38z m-874 -216 c347 -65 594 -313
666 -665 22 -108 15 -292 -15 -394 -74 -248 -233 -438 -453 -539 -141 -65
-321 -84 -486 -50 -279 56 -521 297 -603 599 -31 113 -31 325 0 440 84 315
324 547 631 610 89 18 163 18 260 -1z m-1497 -1147 c86 -61 91 -73 98 -232 4
-87 13 -156 23 -183 23 -63 76 -139 148 -210 128 -126 191 -160 518 -276 305
-109 384 -151 596 -321 17 -13 29 -17 38 -10 7 6 60 47 117 92 132 104 217
147 457 228 298 100 405 157 528 280 123 122 165 215 189 421 16 138 16 139
53 177 61 64 114 81 175 58 55 -21 95 -124 64 -166 -14 -19 -16 -18 -56 18
-48 44 -81 54 -122 37 -44 -19 -69 -56 -69 -105 0 -35 7 -50 38 -86 21 -24 88
-106 149 -182 l111 -139 -25 -81 c-76 -250 -186 -401 -388 -533 -116 -75 -221
-121 -480 -205 -321 -106 -513 -206 -709 -373 l-67 -57 -53 48 c-29 26 -86 71
-127 99 -138 96 -240 140 -644 283 -147 52 -319 133 -417 196 -225 146 -377
394 -378 614 0 38 26 75 166 237 97 112 116 143 116 189 0 46 -17 72 -62 95
-48 24 -67 18 -136 -40 l-48 -43 -8 29 c-11 40 9 108 42 144 40 43 100 42 163
-3z m-11 -154 c45 -40 7 -96 -62 -91 -54 4 -68 30 -39 77 15 24 26 31 51 31
17 0 40 -7 50 -17z m2929 -14 c16 -17 29 -37 29 -45 0 -36 -97 -47 -130 -14
-24 24 -25 38 -4 68 23 33 69 29 105 -9z m-3122 -62 c25 -23 57 -50 70 -59 32
-23 25 -46 -49 -143 -87 -115 -88 -116 -130 -102 -46 16 -58 51 -41 115 14 52
90 232 99 232 3 0 26 -19 51 -43z m3317 -71 c67 -139 74 -171 44 -209 -12 -15
-31 -27 -43 -27 -26 0 -151 127 -184 186 l-21 39 71 62 c40 34 73 62 75 62 2
1 28 -50 58 -113z m-2638 68 c7 -14 28 -32 47 -40 40 -16 41 -20 19 -45 -10
-12 -16 -35 -16 -61 l1 -43 -74 0 -75 0 0 41 c0 22 -7 49 -15 60 -21 27 -19
31 21 50 20 9 41 28 47 41 13 30 31 29 45 -3z m1824 -1 c7 -15 27 -31 45 -37
44 -15 45 -18 23 -61 -11 -22 -20 -52 -20 -68 0 -25 -3 -27 -22 -20 -23 8 -67
8 -102 2 -15 -3 -19 3 -23 35 -2 21 -13 50 -23 64 -24 29 -20 37 19 45 17 4
40 19 52 37 28 37 34 37 51 3z m-1402 -293 c0 -21 49 -60 75 -60 30 0 32 -13
5 -47 -11 -14 -22 -40 -26 -59 -6 -33 -8 -34 -53 -34 -25 0 -56 -3 -68 -6 -21
-6 -23 -3 -21 34 1 27 -5 48 -20 67 -26 33 -23 41 23 49 25 5 39 15 50 36 15
29 35 40 35 20z m994 -60 c32 0 33 -7 2 -49 -18 -25 -23 -41 -19 -62 5 -29 5
-29 -45 -29 -28 0 -62 -4 -76 -10 -26 -9 -26 -9 -26 39 0 35 -5 53 -20 66 -29
26 -25 42 15 49 22 4 42 17 55 36 l21 30 33 -35 c22 -23 43 -35 60 -35z m-437
-265 c33 -14 35 -16 20 -33 -9 -9 -19 -41 -23 -70 -3 -28 -8 -52 -11 -52 -2 0
-18 7 -35 16 -25 13 -36 14 -50 5 -34 -21 -48 -14 -48 28 0 24 -8 48 -21 66
-18 22 -20 29 -8 36 8 5 22 9 31 9 10 0 30 19 44 42 l27 42 19 -37 c12 -24 31
-42 55 -52z"/>
<path d="M1662 3085 c-59 -14 -77 -27 -69 -48 7 -18 92 -27 256 -27 98 0 132
3 149 16 26 18 29 41 5 48 -95 27 -253 33 -341 11z"/>
<path d="M1438 3000 c-79 -47 -102 -74 -87 -102 5 -10 17 -18 27 -18 35 0 202
89 202 108 0 7 -62 52 -71 52 -2 0 -34 -18 -71 -40z"/>
<path d="M2068 3024 c-15 -8 -32 -23 -38 -33 -8 -16 -5 -20 18 -26 15 -3 61
-26 103 -51 84 -49 99 -52 122 -26 25 28 21 38 -25 70 -38 26 -142 83 -150 82
-2 -1 -15 -7 -30 -16z"/>
<path d="M1688 2910 c-24 -15 -88 -100 -88 -117 0 -19 52 -39 123 -48 l58 -7
-3 89 -3 88 -35 2 c-19 2 -43 -2 -52 -7z"/>
<path d="M1840 2900 c-6 -11 -10 -53 -8 -93 2 -57 6 -72 18 -70 96 11 162 27
167 40 9 24 -28 83 -71 115 -46 33 -91 37 -106 8z"/>
<path d="M1540 2862 c-53 -48 -54 -49 -32 -61 28 -15 37 -9 73 47 50 79 36 83
-41 14z"/>
<path d="M2042 2850 c25 -45 38 -60 55 -60 40 0 36 20 -15 71 -66 66 -81 63
-40 -11z"/>
<path d="M1241 2833 c-22 -26 -52 -68 -65 -94 -23 -42 -24 -47 -10 -67 8 -12
23 -22 32 -22 16 0 123 136 138 174 6 14 -28 56 -45 56 -5 0 -28 -21 -50 -47z"/>
<path d="M2306 2849 c-18 -27 -14 -39 46 -121 52 -71 79 -84 98 -48 17 32 -4
81 -59 140 -26 27 -52 50 -58 50 -7 0 -19 -10 -27 -21z"/>
<path d="M2220 2797 c0 -4 20 -48 45 -97 33 -67 50 -90 65 -90 31 0 33 18 7
63 -24 40 -117 139 -117 124z"/>
<path d="M1332 2737 c-54 -69 -68 -106 -48 -125 12 -13 18 -9 42 29 15 24 38
67 50 96 32 71 10 71 -44 0z"/>
<path d="M1437 2764 c-13 -14 5 -24 41 -24 l37 1 -25 14 c-28 16 -43 18 -53 9z"/>
<path d="M2130 2752 l-24 -19 19 -69 c10 -38 22 -77 27 -86 12 -24 59 -23 89
1 23 18 23 19 6 62 -20 49 -66 121 -83 126 -6 2 -21 -5 -34 -15z"/>
<path d="M1970 2709 c-25 -4 -64 -8 -86 -8 -38 -1 -42 -3 -48 -32 -3 -17 -6
-63 -6 -101 l0 -70 33 5 c17 3 64 9 102 13 87 8 135 27 135 52 0 35 -31 127
-48 140 -17 13 -17 13 -82 1z"/>
<path d="M1472 2423 l3 -277 145 3 c80 1 161 6 179 10 41 8 67 41 77 96 l7 40
-51 -47 c-56 -52 -78 -61 -143 -56 l-44 3 -3 253 -2 252 -85 0 -85 0 2 -277z"/>
<path d="M1684 2677 c-22 -19 -28 -34 -32 -79 -4 -51 -2 -58 19 -71 13 -9 42
-17 64 -19 l40 -3 3 89 c3 95 -2 106 -45 106 -12 0 -34 -10 -49 -23z"/>
<path d="M1380 2650 c-11 -21 -20 -46 -20 -54 0 -14 69 -48 83 -39 11 7 8 79
-5 108 -16 36 -34 31 -58 -15z"/>
<path d="M1122 2631 c-21 -13 -62 -165 -62 -231 0 -33 31 -50 56 -30 28 24 70
210 54 240 -11 21 -33 31 -48 21z"/>
<path d="M2455 2620 c-18 -20 -18 -24 4 -123 27 -120 35 -137 62 -137 48 0 47
115 -1 228 -24 57 -37 63 -65 32z"/>
<path d="M1243 2572 c-26 -17 -68 -159 -58 -193 8 -26 60 -26 74 0 14 26 33
149 26 171 -7 21 -27 31 -42 22z"/>
<path d="M2350 2565 c-13 -15 -9 -117 6 -173 6 -23 44 -39 63 -27 31 19 -14
215 -49 215 -4 0 -13 -7 -20 -15z"/>
<path d="M1330 2502 c-14 -52 -13 -139 3 -144 6 -3 31 -3 55 0 49 5 62 24 62
91 0 44 -10 55 -68 75 l-41 15 -11 -37z"/>
<path d="M2250 2514 c-7 -16 -21 -48 -31 -72 -25 -55 -13 -82 34 -82 18 0 38
5 43 10 14 14 -2 140 -20 159 -13 12 -16 11 -26 -15z"/>
<path d="M2016 2481 c-3 -4 -1 -23 4 -42 12 -42 12 -290 0 -383 -10 -79 -23
-98 -74 -99 -48 -1 -90 39 -106 101 l-12 47 -33 -60 c-19 -32 -32 -62 -29 -67
3 -4 26 -20 51 -35 37 -22 62 -28 129 -31 75 -4 89 -2 138 22 40 19 58 36 71
62 21 45 34 180 35 357 l0 137 -84 0 c-47 0 -87 -4 -90 -9z"/>
<path d="M1668 2459 c-24 -13 -23 -61 0 -82 12 -11 36 -17 65 -17 l47 0 0 49
c0 42 -3 49 -22 55 -34 9 -71 7 -90 -5z"/>
<path d="M1847 2455 c-18 -18 -22 -61 -7 -85 7 -12 12 -12 34 0 23 12 30 11
62 -6 35 -19 36 -19 50 0 19 26 18 70 -2 87 -25 21 -117 24 -137 4z"/>
<path d="M1053 2304 c-9 -24 32 -264 48 -280 12 -11 19 -10 44 10 28 22 29 25
17 63 -6 21 -17 75 -23 119 -6 43 -15 85 -21 92 -15 17 -58 15 -65 -4z"/>
<path d="M1184 2306 c-7 -18 13 -172 26 -196 12 -22 23 -25 50 -10 16 8 17 19
13 97 -3 49 -10 96 -15 106 -10 20 -66 23 -74 3z"/>
<path d="M1322 2312 c-17 -12 -5 -172 13 -172 23 0 99 30 107 43 4 7 8 40 8
75 l0 62 -57 0 c-32 0 -64 -4 -71 -8z"/>
<path d="M1654 2306 c-3 -9 -2 -28 3 -43 8 -22 18 -30 51 -37 61 -13 74 -4 70
46 l-3 43 -58 3 c-44 2 -59 -1 -63 -12z"/>
<path d="M1933 2314 c-13 -6 -38 -72 -30 -81 9 -8 71 -20 85 -16 16 6 16 75 0
91 -12 12 -33 14 -55 6z"/>
<path d="M2213 2313 c-16 -6 -17 -96 -3 -124 13 -23 69 -54 80 -42 7 7 30 132
30 162 0 11 -83 14 -107 4z"/>
<path d="M2361 2301 c-6 -11 -11 -56 -11 -100 0 -81 12 -111 45 -111 15 0 45
111 48 180 l2 45 -37 3 c-28 2 -39 -1 -47 -17z"/>
<path d="M2492 2308 c-7 -7 -12 -35 -12 -62 -1 -28 -7 -77 -15 -109 -16 -68
-13 -79 23 -103 24 -16 26 -16 38 1 28 37 53 230 35 264 -13 23 -50 28 -69 9z"/>
<path d="M1882 2158 c-15 -15 -16 -109 -1 -141 15 -34 55 -54 77 -41 30 19 42
57 40 124 l-3 65 -50 3 c-30 2 -55 -2 -63 -10z"/>
<path d="M1383 2100 c-24 -10 -43 -23 -43 -27 0 -16 71 -178 83 -190 10 -10
20 -9 47 5 39 19 39 19 16 112 -9 36 -18 77 -21 93 -6 32 -24 34 -82 7z"/>
<path d="M1506 2093 c3 -16 14 -58 25 -95 23 -81 13 -78 185 -43 15 3 27 21
43 63 37 102 37 102 -142 102 l-117 0 6 -27z"/>
<path d="M2206 2112 c-3 -3 -6 -25 -6 -49 0 -51 -11 -76 -53 -120 -34 -36 -33
-40 9 -49 39 -8 74 27 103 102 18 47 28 104 18 104 -1 0 -16 4 -34 9 -17 5
-34 7 -37 3z"/>
<path d="M2309 2017 c-9 -28 -27 -76 -40 -104 -43 -99 8 -71 75 41 41 68 44
91 17 106 -31 16 -35 13 -52 -43z"/>
<path d="M1247 2044 c-16 -16 53 -144 102 -188 21 -19 21 -19 21 3 0 26 -54
148 -77 173 -16 18 -35 23 -46 12z"/>
<path d="M2417 1998 c-8 -13 -26 -43 -41 -68 -15 -25 -38 -61 -52 -79 l-25
-35 30 -29 c17 -18 34 -26 41 -22 18 11 109 154 116 182 7 24 -7 48 -37 64
-14 7 -21 4 -32 -13z"/>
<path d="M1157 1982 c-30 -33 -17 -73 54 -169 44 -59 64 -65 98 -29 l22 23
-50 67 c-28 37 -58 80 -66 97 -18 33 -35 37 -58 11z"/>
<path d="M1675 1904 c-117 -21 -112 -15 -70 -92 51 -93 71 -112 115 -112 53 0
60 13 60 106 0 81 -6 115 -19 113 -3 -1 -42 -8 -86 -15z"/>
<path d="M1831 1807 c2 -47 9 -90 14 -95 6 -6 24 -13 41 -17 27 -5 38 -1 66
24 37 32 105 148 93 159 -3 4 -54 8 -112 10 l-105 4 3 -85z"/>
<path d="M2074 1818 c-14 -24 -37 -59 -50 -77 -13 -19 -21 -37 -19 -39 7 -8
77 44 120 89 39 39 39 41 21 55 -31 22 -44 17 -72 -28z"/>
<path d="M1477 1843 c-14 -14 -6 -40 21 -65 35 -33 122 -91 122 -82 0 11 -60
107 -83 132 -20 22 -47 29 -60 15z"/>
<path d="M2180 1789 c-7 -11 -9 -23 -6 -26 8 -9 36 17 36 33 0 21 -18 17 -30
-7z"/>
<path d="M1419 1780 c30 -26 49 -26 26 0 -10 11 -25 20 -34 20 -12 -1 -10 -5
8 -20z"/>
<path d="M1333 1749 c-18 -12 -33 -25 -33 -30 0 -11 115 -96 174 -129 l45 -24
31 29 c16 16 30 32 30 35 0 4 -27 22 -60 39 -33 18 -80 48 -105 67 -25 19 -46
34 -48 34 -1 0 -17 -10 -34 -21z"/>
<path d="M2199 1728 c-35 -22 -90 -53 -122 -68 l-58 -28 38 -31 c21 -17 40
-31 43 -31 3 0 41 20 85 45 123 71 147 102 107 138 -10 10 -21 17 -24 17 -3 0
-34 -19 -69 -42z"/>
<path d="M1803 1643 c9 -2 23 -2 30 0 6 3 -1 5 -18 5 -16 0 -22 -2 -12 -5z"/>
<path d="M1631 1598 c-34 -19 -50 -46 -32 -57 29 -18 175 -34 261 -28 147 11
205 43 136 76 -42 20 -332 27 -365 9z"/>
<path d="M2750 1076 c-78 -46 -150 -106 -150 -125 0 -14 43 -14 57 0 19 19 32
1 59 -89 29 -97 38 -112 56 -94 10 10 9 35 -5 118 l-18 105 50 47 c49 46 66
82 38 82 -7 0 -46 -20 -87 -44z"/>
<path d="M900 1058 c0 -2 -9 -57 -20 -123 -11 -66 -20 -130 -20 -142 0 -17 20
-32 94 -72 96 -52 126 -61 126 -38 0 21 -13 34 -64 64 -27 15 -58 40 -69 55
-19 25 -19 31 -6 110 16 100 15 128 -3 139 -12 8 -38 12 -38 7z"/>
<path d="M2232 837 l-104 -21 7 -119 c10 -159 14 -173 51 -169 38 4 193 51
216 66 19 12 24 31 9 40 -5 3 -46 -5 -92 -19 -46 -14 -87 -25 -91 -25 -13 0
-9 77 5 87 6 6 30 14 52 18 46 8 95 31 95 45 0 14 -34 12 -105 -5 -62 -15 -79
-10 -73 21 4 21 31 36 112 61 59 18 78 37 41 40 -11 1 -67 -8 -123 -20z"/>
<path d="M1477 784 c-4 -4 -7 -42 -7 -85 0 -99 -11 -129 -46 -129 -19 0 -28 7
-37 30 -17 46 -67 53 -67 10 0 -10 11 -32 25 -48 29 -34 81 -48 145 -37 l41 7
-3 126 c-3 119 -4 127 -23 130 -12 2 -24 0 -28 -4z"/>
<path d="M1812 628 c-13 -13 -17 -238 -6 -296 7 -33 23 -45 45 -32 16 11 26
246 12 300 -10 37 -30 49 -51 28z"/>
</g>
</svg>
