<?xml version="1.0" standalone="no"?>
<!DOCTYPE svg PUBLIC "-//W3C//DTD SVG 20010904//EN"
 "http://www.w3.org/TR/2001/REC-SVG-20010904/DTD/svg10.dtd">
<svg version="1.0" xmlns="http://www.w3.org/2000/svg"
 width="1152.000000pt" height="648.000000pt" viewBox="0 0 1152.000000 648.000000"
 preserveAspectRatio="xMidYMid meet">

<g transform="translate(0.000000,648.000000) scale(0.100000,-0.100000)"
fill="#000000" stroke="none">
<path d="M343 6363 l-110 -117 43 -91 c24 -49 51 -117 60 -150 25 -94 29 -266
9 -400 l-17 -114 -37 28 c-48 38 -74 45 -117 31 -31 -11 -40 -21 -66 -79 -16
-36 -47 -104 -68 -151 -27 -60 -37 -93 -33 -113 5 -27 45 -67 67 -67 7 0 17
-31 24 -70 38 -221 195 -355 553 -473 213 -70 324 -130 403 -217 l38 -42 52
52 c93 96 235 172 441 235 218 67 361 157 446 281 34 50 79 163 79 199 0 19 9
30 34 42 33 15 56 48 56 78 0 8 -22 61 -49 119 -27 57 -54 120 -60 139 -17 51
-45 72 -97 71 -30 -1 -53 -9 -78 -28 l-35 -27 -6 23 c-72 322 -66 470 26 653
l40 80 -48 43 c-26 23 -85 74 -129 112 l-81 70 -615 0 -615 0 -110 -117z m233
-43 c27 0 32 -17 8 -27 -12 -4 -14 -14 -10 -34 6 -32 4 -34 -26 -18 -14 8 -23
8 -31 0 -20 -20 -34 -12 -29 14 3 16 -2 33 -13 45 -18 19 -17 20 7 20 17 0 29
8 38 28 l13 27 9 -27 c7 -20 16 -28 34 -28z m1101 0 c26 0 26 0 7 -21 -11 -12
-17 -32 -16 -46 3 -22 1 -25 -15 -18 -10 4 -22 7 -28 7 -5 0 -18 -3 -28 -7
-16 -7 -18 -4 -15 18 1 14 -5 34 -16 46 -19 21 -19 21 8 21 19 0 30 7 38 26
l12 25 13 -25 c9 -18 22 -26 40 -26z m-517 -131 c127 -20 256 -106 325 -214
214 -336 -11 -784 -395 -787 -158 -1 -285 65 -387 200 -74 99 -107 231 -92
369 23 217 188 396 399 433 65 11 78 11 150 -1z m-873 -711 c31 -30 32 -33 32
-119 0 -78 3 -95 28 -141 37 -69 109 -139 185 -181 35 -19 130 -56 211 -82
149 -48 230 -91 326 -173 l35 -29 70 57 c87 71 141 98 276 140 158 48 241 90
311 157 86 82 119 150 126 264 6 86 7 91 40 119 45 40 93 41 122 4 22 -28 27
-60 12 -83 -7 -10 -11 -9 -22 6 -19 28 -54 44 -76 36 -56 -20 -70 -76 -29
-118 13 -13 54 -63 91 -110 l67 -85 -22 -73 c-63 -208 -216 -332 -515 -418
-170 -48 -319 -127 -423 -223 -38 -35 -45 -38 -53 -24 -17 30 -133 111 -214
148 -44 21 -138 56 -210 79 -271 88 -418 188 -491 336 -24 49 -37 91 -40 131
l-5 59 56 70 c32 39 70 84 86 100 41 44 41 98 -1 120 -39 20 -44 20 -84 -16
l-35 -30 -6 24 c-8 32 19 85 48 96 29 11 65 -3 104 -41z m-28 -76 c14 -27 -5
-52 -40 -52 -34 0 -46 19 -29 49 13 26 56 28 69 3z m1757 -8 c15 -22 15 -27 3
-35 -33 -21 -79 -6 -79 26 0 41 52 47 76 9z m-1874 -37 c18 -19 40 -36 48 -39
11 -4 3 -20 -34 -69 -27 -35 -52 -68 -56 -72 -4 -4 -19 -3 -33 4 -36 16 -35
46 5 137 17 39 33 72 34 72 1 0 17 -15 36 -33z m1993 -51 c31 -70 35 -87 26
-105 -22 -40 -55 -27 -112 46 -40 49 -50 68 -39 71 8 3 29 20 45 37 17 18 33
33 36 34 4 0 23 -37 44 -83z m-1590 54 c3 -11 17 -23 31 -26 24 -6 24 -7 8
-25 -11 -12 -14 -27 -10 -45 6 -23 5 -25 -11 -19 -22 10 -43 10 -64 1 -13 -6
-15 -1 -11 22 2 18 -2 33 -13 42 -14 12 -13 15 14 26 17 7 31 20 31 29 0 22
18 19 25 -5z m1095 -5 c0 -7 14 -16 31 -20 30 -7 30 -7 12 -27 -10 -11 -16
-31 -15 -44 3 -22 2 -23 -21 -13 -18 8 -30 8 -47 -1 -20 -11 -21 -10 -18 13 1
14 -5 34 -15 45 -18 20 -18 20 11 27 18 4 32 14 35 27 6 21 27 16 27 -7z
m-835 -185 c4 -13 15 -20 31 -20 27 0 31 -12 9 -30 -8 -7 -15 -23 -15 -36 0
-21 -4 -23 -24 -18 -13 3 -33 1 -45 -5 -19 -11 -20 -9 -15 17 4 19 1 32 -10
41 -23 19 -20 31 8 31 16 0 27 7 31 20 3 11 10 20 15 20 5 0 12 -9 15 -20z
m550 0 c4 -13 15 -20 31 -20 28 0 31 -12 8 -31 -9 -7 -14 -22 -11 -36 4 -22 2
-23 -24 -18 -15 4 -37 1 -48 -5 -19 -10 -20 -8 -15 18 4 19 1 32 -10 41 -23
19 -20 31 8 31 16 0 27 7 31 20 3 11 10 20 15 20 5 0 12 -9 15 -20z m-255
-155 c6 -15 17 -25 30 -25 21 0 27 -14 10 -25 -5 -3 -10 -22 -10 -41 0 -34 0
-34 -24 -19 -16 11 -26 13 -31 6 -3 -6 -13 -11 -22 -11 -11 0 -14 6 -9 24 4
15 0 28 -9 36 -21 17 -19 30 5 30 12 0 25 10 32 25 6 14 13 25 15 25 2 0 8
-11 13 -25z"/>
<path d="M993 6158 c-44 -9 -53 -20 -30 -35 6 -4 60 -8 119 -9 92 -2 109 0
123 16 16 17 14 19 -35 29 -60 13 -118 13 -177 -1z"/>
<path d="M850 6100 c-47 -31 -55 -47 -30 -62 13 -9 68 17 129 59 6 4 -32 32
-44 33 -5 0 -30 -14 -55 -30z"/>
<path d="M1225 6110 c-14 -16 -15 -20 -3 -20 8 0 40 -15 71 -34 53 -32 57 -33
72 -17 14 16 14 19 -2 33 -30 25 -89 58 -105 58 -8 0 -23 -9 -33 -20z"/>
<path d="M926 6028 c-33 -27 -36 -32 -21 -40 9 -6 18 -8 19 -6 29 40 47 70 44
73 -2 3 -21 -10 -42 -27z"/>
<path d="M986 6027 c-40 -53 -35 -61 47 -71 l37 -4 0 54 c0 53 0 54 -29 54
-22 0 -37 -9 -55 -33z"/>
<path d="M1100 6004 l0 -56 46 7 c70 10 76 13 63 38 -22 42 -52 67 -81 67 -27
0 -28 -1 -28 -56z"/>
<path d="M1222 6023 c12 -21 23 -40 24 -42 2 -2 11 -1 20 3 15 6 14 9 -7 32
-13 14 -32 30 -41 35 -15 8 -14 4 4 -28z"/>
<path d="M742 6005 c-16 -20 -35 -47 -42 -61 -12 -21 -11 -26 6 -39 17 -13 20
-12 29 1 6 9 24 35 42 59 31 41 31 43 14 59 -18 16 -20 15 -49 -19z"/>
<path d="M1381 6016 c-10 -12 -5 -25 25 -65 42 -56 46 -58 63 -37 15 18 3 46
-37 89 -29 31 -35 32 -51 13z"/>
<path d="M813 5967 c-47 -52 -63 -97 -34 -97 8 0 64 111 58 116 -2 2 -13 -6
-24 -19z"/>
<path d="M1331 5985 c3 -5 16 -32 29 -60 14 -27 25 -51 26 -53 1 -1 9 0 18 4
15 6 14 8 -1 35 -18 29 -79 93 -72 74z"/>
<path d="M860 5960 c0 -5 12 -10 28 -10 21 0 24 2 12 10 -20 13 -40 13 -40 0z"/>
<path d="M1279 5960 c-15 -9 -15 -14 -1 -65 15 -53 17 -56 41 -50 43 10 45 21
16 74 -30 54 -31 55 -56 41z"/>
<path d="M1160 5930 c-25 -4 -48 -6 -52 -3 -5 2 -8 -23 -8 -57 l0 -61 58 6
c112 12 113 12 90 86 -12 42 -12 42 -88 29z"/>
<path d="M827 5895 c-17 -35 -17 -36 9 -45 14 -6 27 -10 30 -10 10 0 3 69 -9
79 -11 8 -17 3 -30 -24z"/>
<path d="M885 5762 l0 -167 104 2 c113 2 124 7 135 58 l7 30 -34 -33 c-29 -28
-41 -33 -73 -30 l-39 3 0 153 0 152 -50 0 -50 0 0 -168z"/>
<path d="M1006 5914 c-9 -8 -16 -32 -16 -53 0 -35 3 -39 31 -45 17 -3 35 -6
40 -6 5 0 9 26 9 58 0 54 -2 58 -24 60 -14 1 -32 -5 -40 -14z"/>
<path d="M1478 5886 c-17 -12 -17 -17 -1 -89 16 -66 20 -76 38 -73 17 3 20 10
19 48 -1 25 -10 64 -20 86 -17 37 -21 40 -36 28z"/>
<path d="M666 5881 c-11 -17 -37 -143 -31 -149 3 -3 14 -6 24 -7 14 -1 21 13
35 73 14 62 15 76 4 83 -17 11 -26 11 -32 0z"/>
<path d="M726 5813 c-23 -68 -21 -93 7 -91 21 2 25 10 34 61 8 51 7 59 -8 68
-14 7 -20 1 -33 -38z"/>
<path d="M1412 5851 c-10 -6 -11 -22 -5 -66 7 -51 11 -59 31 -60 18 -1 22 4
22 25 0 27 -18 89 -29 102 -3 4 -12 4 -19 -1z"/>
<path d="M796 5799 c-3 -17 -6 -42 -6 -56 0 -22 4 -24 38 -21 36 3 37 4 40 44
3 39 1 42 -29 53 -18 6 -33 11 -34 11 -1 0 -5 -14 -9 -31z"/>
<path d="M1349 5823 c-1 -5 -2 -12 -3 -18 0 -5 -7 -20 -14 -33 -19 -33 -8 -54
25 -50 24 3 28 7 25 33 -4 49 -12 75 -22 75 -6 0 -11 -3 -11 -7z"/>
<path d="M1210 5779 c18 -33 9 -277 -10 -289 -41 -26 -86 -1 -97 53 l-6 30
-20 -38 -19 -38 23 -18 c35 -27 105 -35 153 -18 67 24 75 45 78 202 l3 137
-58 0 c-55 0 -57 -1 -47 -21z"/>
<path d="M994 5776 c-13 -33 0 -51 39 -53 36 -3 37 -2 37 30 0 31 -2 33 -35
35 -24 2 -37 -2 -41 -12z"/>
<path d="M1100 5753 c0 -35 8 -41 28 -21 9 9 15 9 24 0 23 -23 48 -14 48 17 0
33 -14 41 -67 39 -30 -1 -33 -4 -33 -35z"/>
<path d="M634 5643 c4 -32 11 -75 17 -95 10 -37 10 -38 34 -22 20 13 23 20 15
35 -6 10 -13 45 -17 79 -5 56 -8 60 -31 60 -24 0 -25 -1 -18 -57z"/>
<path d="M713 5639 c6 -67 15 -83 41 -73 12 5 16 13 12 28 -3 11 -6 40 -6 64
0 39 -2 42 -26 42 -27 0 -27 0 -21 -61z"/>
<path d="M789 5693 c-2 -17 3 -98 6 -101 2 -2 20 1 39 8 34 11 36 14 36 56 l0
44 -40 0 c-22 0 -40 -3 -41 -7z"/>
<path d="M992 5673 c3 -24 8 -28 41 -31 35 -3 37 -2 37 27 0 30 -2 31 -41 31
-38 0 -40 -1 -37 -27z"/>
<path d="M1146 5678 c-9 -34 -8 -35 24 -40 28 -4 30 -3 30 29 0 28 -3 33 -24
33 -16 0 -26 -7 -30 -22z"/>
<path d="M1320 5657 c0 -38 4 -46 26 -56 15 -6 28 -10 30 -9 1 2 6 27 10 56
l7 52 -37 0 c-36 0 -36 0 -36 -43z"/>
<path d="M1416 5692 c-2 -4 -6 -31 -7 -60 -3 -50 7 -71 32 -72 6 0 29 109 29
133 0 10 -48 9 -54 -1z"/>
<path d="M1490 5663 c0 -21 -5 -56 -11 -77 -10 -35 -9 -42 7 -53 10 -7 21 -13
25 -13 10 0 29 92 29 140 0 36 -3 40 -25 40 -22 0 -25 -4 -25 -37z"/>
<path d="M1127 5603 c-13 -13 -7 -82 9 -97 35 -36 64 -10 64 56 0 48 0 48 -33
48 -19 0 -37 -3 -40 -7z"/>
<path d="M828 5567 l-27 -12 24 -58 c13 -33 26 -61 28 -63 2 -3 16 0 30 7 25
11 25 12 11 51 -8 22 -14 51 -14 64 0 27 -12 29 -52 11z"/>
<path d="M906 5553 c16 -73 26 -94 42 -88 9 3 36 9 59 12 24 3 42 8 39 10 -2
3 2 20 10 38 8 19 14 39 14 45 0 6 -33 10 -85 10 l-85 0 6 -27z"/>
<path d="M1320 5542 c0 -29 -7 -46 -26 -65 l-25 -25 22 -7 c28 -9 49 14 69 74
15 45 15 46 -17 55 -21 7 -23 4 -23 -32z"/>
<path d="M1390 5533 c0 -10 -11 -39 -24 -66 -32 -66 -15 -69 29 -5 39 59 42
73 19 82 -22 9 -24 8 -24 -11z"/>
<path d="M747 5534 c-7 -8 24 -70 53 -103 31 -37 33 -21 3 47 -24 57 -40 72
-56 56z"/>
<path d="M1441 5490 c-7 -17 -25 -45 -39 -61 -25 -30 -25 -30 -5 -50 20 -20
20 -20 45 13 14 18 32 47 41 64 15 29 15 33 -2 48 -23 21 -24 21 -40 -14z"/>
<path d="M689 5494 c-14 -17 0 -52 46 -109 23 -28 24 -29 44 -11 l21 19 -26
30 c-13 16 -31 42 -40 58 -17 33 -26 36 -45 13z"/>
<path d="M992 5448 l-52 -10 26 -49 c34 -62 42 -68 77 -62 26 5 27 7 27 69 0
45 -4 64 -12 63 -7 -1 -37 -6 -66 -11z"/>
<path d="M1100 5389 c0 -53 2 -57 26 -63 32 -8 57 12 85 66 10 21 19 39 19 42
0 2 -29 6 -65 8 l-65 3 0 -56z"/>
<path d="M1244 5398 c-9 -18 -23 -41 -32 -50 -30 -35 8 -18 50 21 41 37 41 39
20 50 -19 10 -23 8 -38 -21z"/>
<path d="M882 5412 c-13 -9 19 -44 70 -77 l28 -17 -33 51 c-32 51 -42 57 -65
43z"/>
<path d="M1310 5385 c-7 -9 -11 -18 -8 -20 3 -3 11 1 18 10 7 9 11 18 8 20 -3
3 -11 -1 -18 -10z"/>
<path d="M840 5385 c0 -2 10 -10 23 -16 20 -11 21 -11 8 4 -13 16 -31 23 -31
12z"/>
<path d="M795 5354 c-20 -15 -20 -15 5 -35 14 -11 44 -31 68 -46 l44 -26 20
20 20 20 -55 31 c-31 17 -58 36 -62 42 -8 13 -16 12 -40 -6z"/>
<path d="M1310 5339 c-25 -17 -57 -36 -73 -41 l-27 -10 25 -20 25 -19 50 27
c67 36 87 59 70 79 -17 20 -18 20 -70 -16z"/>
<path d="M1073 5293 c9 -2 23 -2 30 0 6 3 -1 5 -18 5 -16 0 -22 -2 -12 -5z"/>
<path d="M963 5257 c-21 -23 -17 -26 55 -38 42 -8 80 -8 127 0 77 12 85 16 64
37 -12 11 -42 15 -123 17 -91 2 -110 -1 -123 -16z"/>
<path d="M1623 4937 c-60 -40 -79 -67 -49 -67 8 0 18 5 21 10 11 18 21 2 35
-55 23 -97 50 -78 30 21 l-12 58 31 25 c32 26 41 52 19 50 -7 0 -41 -19 -75
-42z"/>
<path d="M540 4943 c0 -4 -6 -45 -14 -89 l-13 -82 69 -36 c60 -33 68 -35 68
-19 0 13 -15 27 -45 41 -50 24 -54 38 -36 130 7 37 6 44 -10 53 -11 5 -19 6
-19 2z"/>
<path d="M1346 4811 l-68 -14 4 -84 c2 -45 7 -85 11 -89 3 -3 21 -1 39 4 18 6
52 16 76 22 25 6 42 17 42 25 0 19 -5 19 -66 0 -27 -8 -50 -15 -51 -15 -2 0
-3 13 -3 29 0 26 4 30 47 37 25 5 48 15 51 23 5 14 -10 13 -82 -5 -22 -5 -26
-3 -26 14 0 21 8 25 67 37 33 7 50 20 36 27 -5 3 -39 -2 -77 -11z"/>
<path d="M880 4715 c0 -63 -1 -65 -25 -65 -18 0 -25 5 -25 20 0 13 -7 20 -20
20 -26 0 -26 -24 1 -51 15 -15 30 -19 62 -17 l42 3 3 78 c3 72 1 77 -18 77
-18 0 -20 -6 -20 -65z"/>
<path d="M1080 4591 c0 -76 3 -100 14 -104 23 -9 26 2 26 105 0 91 -1 98 -20
98 -19 0 -20 -7 -20 -99z"/>
</g>
</svg>
